<svg width="147" height="97" xmlns="http://www.w3.org/2000/svg">
  <g fill="none" fill-rule="evenodd">
    <g fill="#DADDE5" fill-rule="nonzero">
      <path opacity=".3" d="M42 68.35l-12.44-9.48L25.38 63l-8.58-9L1 70v25l41-8z"/>
      <path d="M25.5 62.78L16.8 54 2 68.32V70l14.77-14.23 7.82 7.88-3.9 3.7.98.64 8.05-7.66L41 68.5v-1.24l-11.4-8.39-4.1 3.9z"/>
    </g>
    <g fill="#DADDE5" fill-rule="nonzero">
      <path opacity=".3" d="M105 68.35l12.44-9.48 4.18 4.13 8.58-9L146 70v25l-41-8z"/>
      <path d="M121.5 62.78l8.7-8.78L145 68.32V70l-14.77-14.23-7.82 7.88 3.9 3.7-.98.64-8.05-7.66L106 68.5v-1.24l11.4-8.39 4.1 3.9z"/>
    </g>
    <path d="M29.72 88.99L1.58 94.83V1.34l1.26.34a521.64 521.64 0 0 0 19.54 4.94C42.64 10.98 56.98 13 74.07 13c17.08 0 31.43-2.02 51.69-6.38 3.28-.7 9.39-2.35 18.3-4.94l1.28-.37v93.3l-1.21-.27-18.37-3.97C111.06 87.21 90.23 85 74.06 85c-15.03 0-29.2 1.38-44.34 3.99z" stroke="#DADDE5" stroke-width="2"/>
    <path fill="#DADDE5" fill-rule="nonzero" d="M42 60.5l18.5-16 7 8L81 39l23 22v25.5l-31.5-2-30.5 2z"/>
    <path d="M67.14 50.44l13.62-13.85 23.32 22.79V63L80.76 40.5 68.92 52.56l4.83 5.79a1.28 1.28 0 0 1-.2 1.83c-.58.46-1.42.37-1.9-.2L60.55 46.5l-17.96 16v-3.31l17.97-16.64 6.58 7.89z" fill="#97A1BC" fill-rule="nonzero"/>
    <path d="M58.5 35a4.5 4.5 0 1 1 0-9 4.5 4.5 0 0 1 0 9z" stroke="#97A1BC" stroke-width="2"/>
    <path d="M43.5 11.25V86.3C53.67 85.1 63.83 84.5 74 84.5a237 237 0 0 1 29.5 1.8V11.24a201.9 201.9 0 0 1-60 0z" stroke="#97A1BC" stroke-width="3"/>
  </g>
</svg>
